<svg width="236" height="98" viewBox="0 0 236 98" fill="none" xmlns="http://www.w3.org/2000/svg">
<path d="M60.5955 40V7.27273H81.114V11.5234H65.5334V21.495H80.0433V25.7298H65.5334V35.7493H81.3058V40H60.5955ZM97.2077 15.4545V19.2898H83.337V15.4545H97.2077ZM87.1403 40V12.6101C87.1403 11.076 87.4758 9.80291 88.147 8.79084C88.8182 7.76811 89.7077 7.00639 90.8157 6.50568C91.9236 5.99432 93.1275 5.73863 94.4272 5.73863C95.386 5.73863 96.2063 5.81854 96.8881 5.97834C97.5699 6.12748 98.076 6.26598 98.4062 6.39382L97.2876 10.261C97.0639 10.1971 96.7763 10.1225 96.4247 10.0373C96.0731 9.94141 95.647 9.89346 95.1463 9.89346C93.9851 9.89346 93.1541 10.1811 92.6534 10.7564C92.1633 11.3317 91.9183 12.1626 91.9183 13.2493V40H87.1403ZM109.95 40.4954C107.531 40.4954 105.449 39.9787 103.701 38.9453C101.965 37.9013 100.623 36.4364 99.6744 34.5508C98.7369 32.6545 98.2682 30.4332 98.2682 27.8871C98.2682 25.3729 98.7369 23.157 99.6744 21.2393C100.623 19.3217 101.944 17.8249 103.637 16.7489C105.342 15.6729 107.334 15.1349 109.614 15.1349C110.999 15.1349 112.341 15.364 113.641 15.8221C114.941 16.2802 116.107 16.9993 117.141 17.9794C118.174 18.9595 118.989 20.2326 119.586 21.7987C120.182 23.354 120.481 25.245 120.481 27.4716V29.1655H100.969V25.5859H115.798C115.798 24.3288 115.543 23.2156 115.031 22.2461C114.52 21.266 113.801 20.4936 112.874 19.929C111.958 19.3643 110.882 19.082 109.646 19.082C108.304 19.082 107.132 19.4123 106.13 20.0728C105.14 20.7227 104.373 21.5749 103.829 22.6296C103.297 23.6736 103.03 24.8082 103.03 26.0334V28.8299C103.03 30.4705 103.318 31.8661 103.893 33.0167C104.479 34.1673 105.294 35.0462 106.338 35.6534C107.382 36.25 108.602 36.5483 109.998 36.5483C110.903 36.5483 111.729 36.4205 112.474 36.1648C113.22 35.8984 113.865 35.5043 114.408 34.9822C114.951 34.4602 115.367 33.8157 115.655 33.0487L120.177 33.8636C119.815 35.1953 119.165 36.3619 118.227 37.3633C117.3 38.354 116.134 39.1264 114.728 39.6804C113.332 40.2237 111.739 40.4954 109.95 40.4954ZM123.982 40V15.4545H128.76V40H123.982ZM126.395 11.6673C125.564 11.6673 124.85 11.3903 124.254 10.8363C123.668 10.2717 123.375 9.6005 123.375 8.8228C123.375 8.03445 123.668 7.36328 124.254 6.8093C124.85 6.24467 125.564 5.96236 126.395 5.96236C127.226 5.96236 127.934 6.24467 128.52 6.8093C129.117 7.36328 129.415 8.03445 129.415 8.8228C129.415 9.6005 129.117 10.2717 128.52 10.8363C127.934 11.3903 127.226 11.6673 126.395 11.6673ZM144.846 15.4545V19.2898H131.438V15.4545H144.846ZM135.034 9.57386H139.812V32.793C139.812 33.7198 139.95 34.4176 140.227 34.8864C140.504 35.3445 140.861 35.6587 141.298 35.8292C141.746 35.989 142.23 36.0689 142.752 36.0689C143.136 36.0689 143.471 36.0423 143.759 35.989C144.047 35.9357 144.27 35.8931 144.43 35.8612L145.293 39.8082C145.016 39.9148 144.622 40.0213 144.111 40.1278C143.599 40.245 142.96 40.3089 142.193 40.3196C140.936 40.3409 139.764 40.1172 138.677 39.6484C137.591 39.1797 136.712 38.4553 136.041 37.4751C135.37 36.495 135.034 35.2646 135.034 33.7837V9.57386ZM158.407 40.4954C156.105 40.4954 154.097 39.968 152.382 38.9134C150.667 37.8587 149.335 36.3832 148.387 34.4869C147.439 32.5906 146.965 30.3746 146.965 27.8391C146.965 25.293 147.439 23.0664 148.387 21.1594C149.335 19.2525 150.667 17.7717 152.382 16.717C154.097 15.6623 156.105 15.1349 158.407 15.1349C160.708 15.1349 162.716 15.6623 164.431 16.717C166.146 17.7717 167.478 19.2525 168.426 21.1594C169.374 23.0664 169.848 25.293 169.848 27.8391C169.848 30.3746 169.374 32.5906 168.426 34.4869C167.478 36.3832 166.146 37.8587 164.431 38.9134C162.716 39.968 160.708 40.4954 158.407 40.4954ZM158.423 36.4844C159.914 36.4844 161.15 36.0902 162.13 35.3018C163.11 34.5135 163.835 33.4641 164.303 32.1538C164.783 30.8434 165.022 29.3999 165.022 27.8232C165.022 26.2571 164.783 24.8189 164.303 23.5085C163.835 22.1875 163.11 21.1275 162.13 20.3285C161.15 19.5295 159.914 19.13 158.423 19.13C156.92 19.13 155.674 19.5295 154.683 20.3285C153.703 21.1275 152.973 22.1875 152.494 23.5085C152.025 24.8189 151.791 26.2571 151.791 27.8232C151.791 29.3999 152.025 30.8434 152.494 32.1538C152.973 33.4641 153.703 34.5135 154.683 35.3018C155.674 36.0902 156.92 36.4844 158.423 36.4844Z" fill="url(#paint0_linear_22_83)"/>
<path d="M30.2907 74.9072C30.2907 74.9072 29.5958 75.1958 28.2061 75.773C26.855 76.2746 24.2854 77.2978 20.4972 78.8426L20.9065 77.4797C21.0962 77.4812 21.4764 77.3894 22.0471 77.2042C23.0173 76.8893 24.1224 76.3098 25.3624 75.4658C26.641 74.5462 27.4182 73.4424 27.694 72.1543C27.8127 71.5481 27.8865 70.6094 27.9156 69.3384C27.9832 67.9918 28.023 66.5595 28.035 65.0417C28.1041 63.5053 28.1439 62.0731 28.1545 60.7449C28.1465 59.3598 28.1362 58.2592 28.1237 57.4432L28.117 47.5101C28.064 44.6256 27.9078 42.7839 27.6485 41.9849C27.5003 41.5283 27.3221 41.2708 27.1139 41.2122C26.9442 41.078 26.7266 40.9909 26.4613 40.9509C26.1204 40.8723 25.6531 41.1816 25.0594 41.879C24.4656 42.5763 23.8711 43.3685 23.2759 44.2556C22.8349 44.8403 22.4316 45.4443 22.0662 46.0675C21.7007 46.6908 21.3939 47.1058 21.1455 47.3126C21.113 46.6292 21.0882 46.1642 21.0712 45.9174C21.0927 45.595 21.0958 45.2155 21.0802 44.779C21.7125 44.006 22.4689 43.1297 23.3495 42.15C24.2872 41.1518 25.3019 40.0024 26.3938 38.7019C26.9304 38.0231 27.7254 37.0712 28.7787 35.8462C29.8134 34.5641 30.7233 33.4803 31.5083 32.5947C31.7195 32.2739 31.9393 32.0764 32.1676 32.0023C32.3388 31.9467 32.4614 32.0331 32.5355 32.2613C32.6281 32.5467 32.6444 32.8884 32.5843 33.2863C32.1853 35.7498 31.946 38.4138 31.8664 41.2783C31.7868 44.1428 31.7782 47.615 31.8408 51.695L31.9181 56.3063C31.9246 57.8812 31.9296 59.6459 31.933 61.6003C31.9751 63.4791 32.0464 65.2537 32.147 66.9242C32.2291 68.5377 32.3427 69.7624 32.4879 70.5985C32.6701 71.5486 33.2348 72.1223 34.1819 72.3196C35.1106 72.4598 36.0785 72.4295 37.0857 72.2287C38.1315 71.9524 38.8256 71.7587 39.168 71.6476L38.5598 72.9804C38.2374 72.9589 37.5818 73.077 36.5931 73.3348C35.5859 73.5356 34.5023 73.7926 33.3424 74.106C32.164 74.3623 31.1467 74.6294 30.2907 74.9072ZM45.3911 51.3344C44.7824 51.5319 44.1936 51.5968 43.6249 51.5291C43.082 51.4109 42.6746 50.9334 42.403 50.0963C41.9708 48.7647 41.881 47.322 42.1337 45.7681C42.374 44.1761 42.6889 42.7492 43.0784 41.4874C43.4412 40.4024 43.8986 39.3498 44.4506 38.3295C45.0283 37.2589 45.7001 36.2839 46.466 35.4045C46.9513 34.8265 47.6396 34.1615 48.5311 33.4096C49.4482 32.6073 50.2682 32.0888 50.9911 31.8542C51.5998 31.6567 52.188 31.655 52.7557 31.8492C53.3111 32.0054 53.7246 32.502 53.9962 33.3391C54.416 34.6326 54.5058 36.0754 54.2655 37.6673C54.0509 39.2089 53.7489 40.6106 53.3594 41.8724C53.1651 42.4401 52.9647 42.9888 52.7581 43.5184C52.5392 44.01 52.2884 44.533 52.0057 45.0873C53.4134 44.6304 54.5773 43.8111 55.4975 42.6294C56.4052 41.4096 57.1053 40.0679 57.5975 38.6045L57.6746 38.4533C57.7888 38.4163 57.8829 38.5119 57.957 38.7402C58.0434 39.0065 58.0476 39.2785 57.9695 39.5562C57.5543 40.8684 56.9119 42.1283 56.0421 43.3357C55.16 44.5051 53.9961 45.3245 52.5504 45.7937C52.3982 45.8431 52.246 45.8925 52.0938 45.9419C51.9416 45.9913 51.7832 46.0216 51.6187 46.033C50.1302 48.7029 48.0543 50.47 45.3911 51.3344ZM46.56 49.8826C47.0927 49.7097 47.6016 49.3343 48.0869 48.7563C48.6102 48.1659 48.9875 47.6439 49.2188 47.1904C49.6557 46.3337 50.0231 45.4574 50.3211 44.5617C50.6068 43.6279 50.8545 42.7064 51.0641 41.7973C51.3004 40.7113 51.4811 39.4541 51.6063 38.0257C51.7314 36.5973 51.615 35.3315 51.2569 34.2281C50.9729 33.353 50.5265 33.0143 49.9178 33.2119C49.4232 33.3724 48.8823 33.7792 48.2953 34.4323C47.7463 35.0731 47.3561 35.6203 47.1248 36.0738C46.2634 37.8253 45.6483 39.623 45.2795 41.4669C45.0689 42.5025 44.8697 43.7026 44.6818 45.0672C44.4939 46.4319 44.5605 47.6088 44.8815 48.598C44.9309 48.7502 44.9803 48.9024 45.0297 49.0546C45.1048 49.1564 45.186 49.2772 45.2735 49.417C45.5985 49.9003 46.0274 50.0555 46.56 49.8826Z" fill="url(#paint1_linear_22_83)"/>
<path d="M61.7259 82.9564L61.1686 50.2339L78.6164 49.9368L78.6338 50.9593L62.2086 51.2391L62.4611 66.0665L77.9277 65.8031L77.9451 66.8256L62.4786 67.089L62.7311 81.9164L79.6036 81.6291L79.6211 82.6517L61.7259 82.9564ZM99.8045 62.9372L98.7863 63.2103C98.4379 62.1507 97.9595 61.2745 97.351 60.5816C96.753 59.8779 96.025 59.3576 95.1668 59.0206C94.3085 58.6729 93.3148 58.5087 92.1857 58.528C90.2258 58.5613 88.6472 59.089 87.4499 60.111C86.2525 61.1223 85.6676 62.4428 85.6954 64.0725C85.7173 65.3614 86.1458 66.4356 86.9809 67.2951C87.8266 68.1544 89.0892 68.7775 90.7686 69.1644L94.6196 70.0578C96.4274 70.4745 97.8037 71.2076 98.7486 72.257C99.7041 73.3062 100.195 74.5871 100.22 76.0997C100.243 77.4311 99.9116 78.6088 99.2258 79.6327C98.5507 80.6565 97.6054 81.461 96.3901 82.0464C95.1745 82.6212 93.7626 82.9223 92.1541 82.9497C89.9705 82.9868 88.1772 82.4846 86.7743 81.443C85.3715 80.4014 84.4456 78.9042 83.9968 76.9513L85.015 76.6783C85.4068 78.4084 86.2017 79.7267 87.3999 80.6333C88.6085 81.529 90.1874 81.9603 92.1367 81.9271C94.2671 81.8908 95.9838 81.3395 97.2868 80.2731C98.5899 79.2067 99.2269 77.8214 99.1979 76.1171C99.1763 74.8495 98.7639 73.7857 97.9608 72.9257C97.1577 72.0656 95.9646 71.452 94.3814 71.0847L90.5304 70.1914C88.637 69.7548 87.1913 69.0123 86.1932 67.9638C85.2057 66.9151 84.6989 65.6238 84.6728 64.0899C84.6508 62.8011 84.9513 61.6719 85.574 60.7023C86.2073 59.7219 87.0892 58.9504 88.2197 58.3877C89.3608 57.8249 90.677 57.5308 92.1683 57.5054C94.0643 57.4731 95.6541 57.9148 96.9376 58.8306C98.221 59.7357 99.1766 61.1046 99.8045 62.9372ZM114.653 82.5665C112.671 82.6002 110.894 82.0764 109.32 80.9951C107.756 79.903 106.511 78.4059 105.583 76.5038C104.666 74.6015 104.187 72.4414 104.146 70.0234C104.105 67.6267 104.511 65.4622 105.362 63.5298C106.214 61.5868 107.402 60.0429 108.927 58.8981C110.463 57.7532 112.228 57.1638 114.219 57.1298C115.689 57.1048 117.042 57.4014 118.278 58.0197C119.524 58.6271 120.573 59.4936 121.423 60.6192C122.273 61.7341 122.833 63.0351 123.104 64.5222L122.017 64.5407C121.654 62.6184 120.749 61.0675 119.301 59.8882C117.863 58.698 116.175 58.1194 114.237 58.1524C112.479 58.1823 110.906 58.7206 109.518 59.7671C108.139 60.8028 107.061 62.2116 106.281 63.9936C105.502 65.765 105.131 67.7691 105.169 70.006C105.206 72.179 105.628 74.1429 106.436 75.8979C107.254 77.6527 108.37 79.0401 109.783 80.0603C111.196 81.0804 112.814 81.5749 114.635 81.5439C115.945 81.5216 117.144 81.2295 118.232 80.6675C119.32 80.095 120.218 79.3019 120.925 78.2882C121.643 77.2745 122.086 76.1002 122.255 74.7654L123.342 74.7469C123.134 76.2954 122.624 77.652 121.813 78.8165C121.002 79.9811 119.978 80.8935 118.743 81.5539C117.507 82.2035 116.144 82.5411 114.653 82.5665ZM137.594 82.1758C135.667 82.2086 133.926 81.6842 132.373 80.6025C130.82 79.5102 129.58 78.013 128.653 76.1109C127.736 74.1979 127.257 72.0378 127.216 69.6305C127.175 67.2125 127.58 65.0373 128.431 63.105C129.294 61.1724 130.482 59.6391 131.997 58.5052C133.512 57.3606 135.233 56.7719 137.161 56.7391C139.089 56.7063 140.824 57.2361 142.367 58.3286C143.92 59.4209 145.16 60.9181 146.087 62.8202C147.015 64.7223 147.499 66.877 147.54 69.2844C147.581 71.6917 147.17 73.867 146.308 75.8102C145.457 77.7426 144.274 79.2811 142.759 80.4256C141.244 81.5596 139.522 82.1429 137.594 82.1758ZM137.577 81.1532C139.313 81.1236 140.86 80.5858 142.216 79.5399C143.584 78.4937 144.652 77.0797 145.421 75.2979C146.189 73.5161 146.555 71.5174 146.517 69.3018C146.479 67.0862 146.041 65.1065 145.201 63.3627C144.372 61.6081 143.262 60.2313 141.871 59.2321C140.479 58.2222 138.915 57.7321 137.179 57.7617C135.453 57.7911 133.907 58.3342 132.54 59.391C131.183 60.437 130.115 61.851 129.335 63.633C128.566 65.4041 128.201 67.3975 128.239 69.6131C128.276 71.8287 128.71 73.8138 129.539 75.5684C130.368 77.323 131.478 78.6999 132.869 79.699C134.272 80.698 135.841 81.1828 137.577 81.1532ZM153.615 48.6595L154.173 81.382L153.15 81.3994L152.593 48.6769L153.615 48.6595ZM161.802 64.7582L162.083 81.2473L161.061 81.2647L160.503 48.5421L161.526 48.5247L161.732 60.6039L161.86 60.6018C162.413 59.3137 163.338 58.2751 164.635 57.4859C165.943 56.6964 167.444 56.2873 169.137 56.2585C170.778 56.2305 172.233 56.5627 173.502 57.2549C174.771 57.9472 175.773 58.9157 176.508 60.1605C177.243 61.4053 177.624 62.8478 177.652 64.4882L177.933 80.9773L176.911 80.9947L176.63 64.5056C176.593 62.3327 175.881 60.5761 174.494 59.2358C173.108 57.8956 171.328 57.244 169.155 57.281C167.706 57.3057 166.423 57.6419 165.304 58.2896C164.197 58.9371 163.327 59.8203 162.696 60.9391C162.076 62.0578 161.778 63.3308 161.802 64.7582ZM190.978 81.2666C189.635 81.2895 188.39 81.0336 187.241 80.4992C186.102 79.9645 185.178 79.1705 184.467 78.1171C183.767 77.0635 183.404 75.7698 183.378 74.2359C183.364 73.405 183.484 72.6252 183.738 71.8963C183.992 71.1568 184.449 70.4831 185.11 69.8752C185.771 69.2672 186.699 68.74 187.896 68.2934C189.103 67.8466 190.647 67.4954 192.529 67.2396C193.656 67.0925 194.718 66.9252 195.717 66.7378C196.715 66.5503 197.526 66.2808 198.148 65.9292C198.771 65.5776 199.077 65.0823 199.066 64.4432L199.041 62.9732C199.009 61.0878 198.349 59.5861 197.062 58.4679C195.775 57.3391 194.077 56.7927 191.968 56.8286C190.242 56.858 188.742 57.2671 187.466 58.056C186.19 58.8342 185.308 59.9147 184.82 61.2975L183.855 60.9304C184.221 59.9013 184.797 59.0071 185.583 58.2479C186.369 57.4886 187.307 56.8973 188.398 56.4738C189.488 56.0504 190.672 55.8278 191.95 55.806C193.197 55.7848 194.313 55.9522 195.299 56.3083C196.296 56.6536 197.146 57.1506 197.85 57.7992C198.553 58.4372 199.094 59.1951 199.471 60.0731C199.848 60.951 200.046 61.9119 200.063 62.9558L200.364 80.5953L199.341 80.6127L199.256 75.6276L199.129 75.6298C198.636 76.7463 197.987 77.727 197.181 78.5718C196.385 79.4058 195.459 80.0609 194.401 80.537C193.354 81.0024 192.213 81.2456 190.978 81.2666ZM190.96 80.244C192.515 80.2175 193.92 79.7781 195.173 78.9256C196.426 78.0626 197.413 76.879 198.133 75.3751C198.853 73.8605 199.196 72.1125 199.163 70.1313L199.1 66.4244C198.805 66.6532 198.446 66.8564 198.023 67.0341C197.611 67.2116 197.139 67.3741 196.609 67.5217C196.089 67.6584 195.521 67.78 194.905 67.8863C194.289 67.9927 193.63 68.0945 192.929 68.1917C190.739 68.4847 189.02 68.9029 187.772 69.4463C186.524 69.9896 185.645 70.6598 185.137 71.457C184.628 72.2541 184.383 73.1746 184.401 74.2185C184.432 76.0719 185.075 77.5473 186.33 78.6447C187.595 79.7419 189.139 80.275 190.96 80.244Z" fill="url(#paint2_linear_22_83)"/>
<defs>
<linearGradient id="paint0_linear_22_83" x1="114.5" y1="4" x2="114.5" y2="44" gradientUnits="userSpaceOnUse">
<stop stop-color="#D4AF37"/>
<stop offset="0.5" stop-color="#F4D03F"/>
<stop offset="1" stop-color="#D4AF37"/>
</linearGradient>
<linearGradient id="paint1_linear_22_83" x1="27.7606" y1="9.00975" x2="53.6438" y2="88.7605" gradientUnits="userSpaceOnUse">
<stop stop-color="#D4AF37"/>
<stop offset="0.5" stop-color="#F4D03F"/>
<stop offset="1" stop-color="#D4AF37"/>
</linearGradient>
<linearGradient id="paint2_linear_22_83" x1="145.505" y1="45.5244" x2="146.204" y2="86.5727" gradientUnits="userSpaceOnUse">
<stop stop-color="#D4AF37"/>
<stop offset="0.5" stop-color="#F4D03F"/>
<stop offset="1" stop-color="#D4AF37"/>
</linearGradient>
</defs>
</svg>
